<svg width="24" height="24" viewBox="0 0 24 24" fill="none" xmlns="http://www.w3.org/2000/svg">
<path d="M3.00002 5.0001C2.86751 4.99823 2.73595 5.02271 2.61298 5.07212C2.49001 5.12153 2.37809 5.1949 2.28372 5.28794C2.18935 5.38098 2.11441 5.49186 2.06327 5.61411C2.01212 5.73637 1.98578 5.86757 1.98578 6.0001C1.98578 6.13263 2.01212 6.26383 2.06327 6.38609C2.11441 6.50834 2.18935 6.61922 2.28372 6.71226C2.37809 6.8053 2.49001 6.87867 2.61298 6.92808C2.73595 6.97749 2.86751 7.00197 3.00002 7.0001H21C21.1325 7.00197 21.2641 6.97749 21.3871 6.92808C21.51 6.87867 21.622 6.8053 21.7163 6.71226C21.8107 6.61922 21.8856 6.50834 21.9368 6.38609C21.9879 6.26383 22.0143 6.13263 22.0143 6.0001C22.0143 5.86757 21.9879 5.73637 21.9368 5.61411C21.8856 5.49186 21.8107 5.38098 21.7163 5.28794C21.622 5.1949 21.51 5.12153 21.3871 5.07212C21.2641 5.02271 21.1325 4.99823 21 5.0001H3.00002ZM3.00002 11.0001C2.86751 10.9982 2.73595 11.0227 2.61298 11.0721C2.49001 11.1215 2.37809 11.1949 2.28372 11.2879C2.18935 11.381 2.11441 11.4919 2.06327 11.6141C2.01212 11.7364 1.98578 11.8676 1.98578 12.0001C1.98578 12.1326 2.01212 12.2638 2.06327 12.3861C2.11441 12.5083 2.18935 12.6192 2.28372 12.7123C2.37809 12.8053 2.49001 12.8787 2.61298 12.9281C2.73595 12.9775 2.86751 13.002 3.00002 13.0001H21C21.1325 13.002 21.2641 12.9775 21.3871 12.9281C21.51 12.8787 21.622 12.8053 21.7163 12.7123C21.8107 12.6192 21.8856 12.5083 21.9368 12.3861C21.9879 12.2638 22.0143 12.1326 22.0143 12.0001C22.0143 11.8676 21.9879 11.7364 21.9368 11.6141C21.8856 11.4919 21.8107 11.381 21.7163 11.2879C21.622 11.1949 21.51 11.1215 21.3871 11.0721C21.2641 11.0227 21.1325 10.9982 21 11.0001H3.00002ZM3.00002 17.0001C2.86751 16.9982 2.73595 17.0227 2.61298 17.0721C2.49001 17.1215 2.37809 17.1949 2.28372 17.2879C2.18935 17.381 2.11441 17.4919 2.06327 17.6141C2.01212 17.7364 1.98578 17.8676 1.98578 18.0001C1.98578 18.1326 2.01212 18.2638 2.06327 18.3861C2.11441 18.5083 2.18935 18.6192 2.28372 18.7123C2.37809 18.8053 2.49001 18.8787 2.61298 18.9281C2.73595 18.9775 2.86751 19.002 3.00002 19.0001H21C21.1325 19.002 21.2641 18.9775 21.3871 18.9281C21.51 18.8787 21.622 18.8053 21.7163 18.7123C21.8107 18.6192 21.8856 18.5083 21.9368 18.3861C21.9879 18.2638 22.0143 18.1326 22.0143 18.0001C22.0143 17.8676 21.9879 17.7364 21.9368 17.6141C21.8856 17.4919 21.8107 17.381 21.7163 17.2879C21.622 17.1949 21.51 17.1215 21.3871 17.0721C21.2641 17.0227 21.1325 16.9982 21 17.0001H3.00002Z" fill="black"/>
</svg>
